<svg xmlns="http://www.w3.org/2000/svg" width="800" height="1000" viewBox="0 0 800 1000">
  <defs>
    <linearGradient id="bg" x1="0" y1="0" x2="1" y2="1">
      <stop offset="0%" stop-color="#1a1c16"/>
      <stop offset="100%" stop-color="#131313"/>
    </linearGradient>
  </defs>
  <rect width="800" height="1000" fill="url(#bg)"/>
  <!-- Camo-style abstract shapes -->
  <path d="M100,200 Q200,180 250,250 Q280,320 200,350 Q120,340 100,280 Z" fill="#1f2518" stroke="none" opacity="0.6"/>
  <path d="M400,150 Q500,130 550,200 Q580,280 500,310 Q420,300 380,240 Z" fill="#232a1d" stroke="none" opacity="0.5"/>
  <path d="M600,300 Q680,280 720,350 Q740,420 680,450 Q610,440 590,380 Z" fill="#1d2217" stroke="none" opacity="0.4"/>
  <path d="M150,450 Q250,420 300,490 Q330,560 260,590 Q180,580 140,520 Z" fill="#252d1f" stroke="none" opacity="0.45"/>
  <path d="M450,400 Q550,380 600,450 Q630,530 550,560 Q470,540 440,480 Z" fill="#1e2519" stroke="none" opacity="0.5"/>
  <path d="M250,620 Q350,600 400,670 Q430,740 350,770 Q270,750 240,690 Z" fill="#222a1c" stroke="none" opacity="0.4"/>
  <path d="M550,600 Q640,580 680,650 Q700,720 640,740 Q570,730 540,670 Z" fill="#1c2316" stroke="none" opacity="0.35"/>
  <path d="M100,700 Q180,680 220,730 Q240,790 190,810 Q120,800 100,760 Z" fill="#252e1e" stroke="none" opacity="0.3"/>
  <!-- Overlay lines -->
  <line x1="150" y1="400" x2="650" y2="400" stroke="#7a8a5a" stroke-width="0.5" opacity="0.1"/>
  <line x1="150" y1="600" x2="650" y2="600" stroke="#7a8a5a" stroke-width="0.5" opacity="0.1"/>
  <!-- V2 marker -->
  <text x="680" y="180" text-anchor="middle" font-family="'Helvetica Neue', Arial, sans-serif" font-size="60" font-weight="900" fill="#e9ffb9" opacity="0.05">V2</text>
  <!-- Product name -->
  <text x="400" y="470" text-anchor="middle" font-family="'Helvetica Neue', Arial, sans-serif" font-size="38" font-weight="700" fill="#ffffff" letter-spacing="4">БРЮКИ КАРГО</text>
  <text x="400" y="525" text-anchor="middle" font-family="'Helvetica Neue', Arial, sans-serif" font-size="40" font-weight="300" fill="#e9ffb9" letter-spacing="16">V2</text>
  <text x="400" y="900" text-anchor="middle" font-family="'Helvetica Neue', Arial, sans-serif" font-size="14" font-weight="400" fill="#555" letter-spacing="8">CLICK.UZ</text>
</svg>