<svg xmlns="http://www.w3.org/2000/svg" width="800" height="800" viewBox="0 0 800 800">
  <defs>
    <radialGradient id="bg" cx="50%" cy="45%" r="65%">
      <stop offset="0%" stop-color="#1f1535"/>
      <stop offset="100%" stop-color="#131313"/>
    </radialGradient>
    <linearGradient id="purpleglow" x1="0" y1="0" x2="1" y2="1">
      <stop offset="0%" stop-color="#bf81ff" stop-opacity="0.1"/>
      <stop offset="100%" stop-color="#131313" stop-opacity="0"/>
    </linearGradient>
  </defs>
  <rect width="800" height="800" fill="url(#bg)"/>
  <rect width="800" height="800" fill="url(#purpleglow)"/>
  <!-- Hanger icon outline -->
  <path d="M400,220 L400,260" stroke="#bf81ff" stroke-width="2" opacity="0.3"/>
  <circle cx="400" cy="210" r="15" fill="none" stroke="#bf81ff" stroke-width="1.5" opacity="0.25"/>
  <path d="M400,260 L250,380 L200,380 Q180,380 180,400 L180,410 Q180,420 195,420 L605,420 Q620,420 620,410 L620,400 Q620,380 600,380 L550,380 Z" fill="none" stroke="#bf81ff" stroke-width="1.5" opacity="0.25"/>
  <!-- Second hanger shadow -->
  <path d="M400,270 L260,385 L215,385 Q200,385 200,400 L200,408 Q200,415 212,415 L588,415 Q600,415 600,408 L600,400 Q600,385 585,385 L540,385 Z" fill="none" stroke="#bf81ff" stroke-width="0.5" opacity="0.08"/>
  <!-- Decorative elements -->
  <circle cx="400" cy="400" r="160" fill="none" stroke="#bf81ff" stroke-width="0.5" opacity="0.06"/>
  <circle cx="400" cy="400" r="200" fill="none" stroke="#bf81ff" stroke-width="0.3" opacity="0.04"/>
  <!-- Corner marks -->
  <path d="M100,100 L100,80 L120,80" fill="none" stroke="#bf81ff" stroke-width="1" opacity="0.12"/>
  <path d="M700,100 L700,80 L680,80" fill="none" stroke="#bf81ff" stroke-width="1" opacity="0.12"/>
  <path d="M100,700 L100,720 L120,720" fill="none" stroke="#bf81ff" stroke-width="1" opacity="0.12"/>
  <path d="M700,700 L700,720 L680,720" fill="none" stroke="#bf81ff" stroke-width="1" opacity="0.12"/>
  <!-- Category name -->
  <text x="400" y="520" text-anchor="middle" font-family="'Helvetica Neue', Arial, sans-serif" font-size="48" font-weight="700" fill="#ffffff" letter-spacing="12">ОДЕЖДА</text>
  <line x1="280" y1="545" x2="520" y2="545" stroke="#bf81ff" stroke-width="1" opacity="0.3"/>
  <text x="400" y="720" text-anchor="middle" font-family="'Helvetica Neue', Arial, sans-serif" font-size="14" font-weight="400" fill="#555" letter-spacing="8">CLICK.UZ</text>
</svg>